<svg width="50" height="48" viewBox="0 0 50 48" fill="none" xmlns="http://www.w3.org/2000/svg">
<g clip-path="url(#clip0)">
<path d="M25 0.349998C11.2347 0.349998 0 11.0234 0 24.1C0 37.1771 11.2353 47.85 25 47.85C38.7655 47.85 50 37.1765 50 24.1C50 11.0227 38.7647 0.349998 25 0.349998ZM25 45.0668C12.8304 45.0668 2.92969 35.6611 2.92969 24.1C2.92969 12.5389 12.8304 3.1332 25 3.1332C37.1696 3.1332 47.0703 12.5389 47.0703 24.1C47.0703 35.6611 37.1696 45.0668 25 45.0668ZM32.3242 15.7504C32.3242 11.9137 29.0386 8.79238 25 8.79238C20.9614 8.79238 17.6758 11.9137 17.6758 15.7504C17.6758 19.587 20.9614 22.7084 25 22.7084C29.0386 22.7084 32.3242 19.587 32.3242 15.7504ZM25 19.9252C22.5769 19.9252 20.6055 18.0524 20.6055 15.7504C20.6055 13.4484 22.5769 11.5756 25 11.5756C27.4231 11.5756 29.3945 13.4484 29.3945 15.7504C29.3945 18.0524 27.4231 19.9252 25 19.9252ZM25 22.7084C17.7306 22.7084 11.8164 28.3268 11.8164 35.2328V36.537C11.8164 36.9326 11.9936 37.3095 12.3037 37.5734C15.8719 40.6108 20.3809 42.2836 25 42.2836C29.6192 42.2836 34.1282 40.6108 37.6963 37.5734C38.0064 37.3095 38.1836 36.9325 38.1836 36.537V35.2328C38.1836 28.3268 32.2694 22.7084 25 22.7084ZM35.2539 35.9001C32.3074 38.2261 28.6903 39.5004 25 39.5004C21.3097 39.5004 17.6926 38.2261 14.7461 35.9001V35.2328C14.7461 29.8615 19.346 25.4916 25 25.4916C30.654 25.4916 35.2539 29.8615 35.2539 35.2328V35.9001Z" fill="url(#paint0_linear)"/>
</g>
<defs>
<linearGradient id="paint0_linear" x1="25" y1="47.85" x2="25" y2="0.349998" gradientUnits="userSpaceOnUse">
<stop stop-color="#5558FF"/>
<stop offset="1" stop-color="#00C0FF"/>
</linearGradient>
<clipPath id="clip0">
<rect width="50" height="47.5" fill="white" transform="translate(0 0.349998)"/>
</clipPath>
</defs>
</svg>
